<svg width="1440" height="378" viewBox="0 0 1440 378" fill="none" xmlns="http://www.w3.org/2000/svg">
<g opacity="0.84">
<path d="M838.802 0L494.043 378.475H1200.88L838.802 0Z" fill="#0F0C0C"/>
<path d="M838.802 0L769.438 378.475H1200.88L838.802 0Z" fill="#0F0C0C"/>
<path d="M0 378.475L377.749 178.304L722.508 378.475H0Z" fill="#0F0C0C"/>
<path d="M327.438 378.475L377.749 178.304L722.508 378.475H327.438Z" fill="#0F0C0C"/>
<path d="M1041.7 80.7412L1329.55 378.475H771.994L1041.7 80.7412Z" fill="#0F0C0C"/>
<path d="M1041.7 80.7412L1329.55 378.475H1007.88L1041.7 80.7412Z" fill="#0F0C0C"/>
<path d="M578.171 206.058L780.242 378.475H352.181L578.171 206.058Z" fill="#0F0C0C"/>
<path d="M533.633 378.475L578.171 206.058L780.242 378.475H533.633Z" fill="#0F0C0C"/>
<path d="M1459.86 378.475L1205 153.072L953.446 378.475H1459.86Z" fill="#0F0C0C"/>
<path d="M1459.86 378.475L1205 153.072L1175.31 378.475H1459.86Z" fill="#0F0C0C"/>
<path d="M1047.47 378.475L850.349 199.33L647.453 378.475H1047.47Z" fill="#0F0C0C"/>
<path d="M827.255 378.475H1047.47L850.349 199.33L827.255 378.475Z" fill="#0F0C0C"/>
</g>
<g opacity="0.09">
<path d="M838.802 0L494.043 378.475H1200.88L838.802 0Z" fill="#6A3788"/>
<path d="M838.802 0L769.438 378.475H1200.88L838.802 0Z" fill="#E243F7"/>
<path d="M0 378.475L377.749 178.304L722.508 378.475H0Z" fill="#672C7E"/>
<path d="M327.438 378.475L377.749 178.304L722.508 378.475H327.438Z" fill="#DE3AEE"/>
<path d="M1041.7 80.7412L1329.55 378.475H771.994L1041.7 80.7412Z" fill="#734A7E"/>
<path d="M1041.7 80.7412L1329.55 378.475H1007.88L1041.7 80.7412Z" fill="#D930E5"/>
<path d="M578.171 206.058L780.242 378.475H352.181L578.171 206.058Z" fill="#A320B8"/>
<path d="M533.633 378.475L578.171 206.058L780.242 378.475H533.633Z" fill="#D425DC"/>
<path d="M1459.86 378.475L1205 153.072L953.446 378.475H1459.86Z" fill="#965E9A"/>
<path d="M1459.86 378.475L1205 153.072L1175.31 378.475H1459.86Z" fill="#EE6CF1"/>
<path d="M1047.47 378.475L850.349 199.33L647.453 378.475H1047.47Z" fill="#773D77"/>
<path d="M827.255 378.475H1047.47L850.349 199.33L827.255 378.475Z" fill="#E14BE1"/>
</g>
<g opacity="0.84">
<path d="M838.802 0L494.043 378.475H1200.88L838.802 0Z" fill="#0F0C0C"/>
<path d="M838.802 0L769.438 378.475H1200.88L838.802 0Z" fill="#0F0C0C"/>
<path d="M0 378.475L377.749 178.304L722.508 378.475H0Z" fill="#0F0C0C"/>
<path d="M327.438 378.475L377.749 178.304L722.508 378.475H327.438Z" fill="#0F0C0C"/>
<path d="M1041.7 80.7412L1329.55 378.475H771.994L1041.7 80.7412Z" fill="#0F0C0C"/>
<path d="M1041.7 80.7412L1329.55 378.475H1007.88L1041.7 80.7412Z" fill="#0F0C0C"/>
<path d="M578.171 206.058L780.242 378.475H352.181L578.171 206.058Z" fill="#0F0C0C"/>
<path d="M533.633 378.475L578.171 206.058L780.242 378.475H533.633Z" fill="#0F0C0C"/>
<path d="M1459.86 378.475L1205 153.072L953.446 378.475H1459.86Z" fill="#0F0C0C"/>
<path d="M1459.86 378.475L1205 153.072L1175.31 378.475H1459.86Z" fill="#0F0C0C"/>
<path d="M1047.47 378.475L850.349 199.33L647.453 378.475H1047.47Z" fill="#0F0C0C"/>
<path d="M827.255 378.475H1047.47L850.349 199.33L827.255 378.475Z" fill="#0F0C0C"/>
</g>
<g opacity="0.09">
<path d="M838.802 0L494.043 378.475H1200.88L838.802 0Z" fill="#6A3788"/>
<path d="M838.802 0L769.438 378.475H1200.88L838.802 0Z" fill="#E243F7"/>
<path d="M0 378.475L377.749 178.304L722.508 378.475H0Z" fill="#672C7E"/>
<path d="M327.438 378.475L377.749 178.304L722.508 378.475H327.438Z" fill="#DE3AEE"/>
<path d="M1041.7 80.7412L1329.55 378.475H771.994L1041.7 80.7412Z" fill="#734A7E"/>
<path d="M1041.7 80.7412L1329.55 378.475H1007.88L1041.7 80.7412Z" fill="#D930E5"/>
<path d="M578.171 206.058L780.242 378.475H352.181L578.171 206.058Z" fill="#A320B8"/>
<path d="M533.633 378.475L578.171 206.058L780.242 378.475H533.633Z" fill="#D425DC"/>
<path d="M1459.86 378.475L1205 153.072L953.446 378.475H1459.86Z" fill="#965E9A"/>
<path d="M1459.86 378.475L1205 153.072L1175.31 378.475H1459.86Z" fill="#EE6CF1"/>
<path d="M1047.47 378.475L850.349 199.33L647.453 378.475H1047.47Z" fill="#773D77"/>
<path d="M827.255 378.475H1047.47L850.349 199.33L827.255 378.475Z" fill="#E14BE1"/>
</g>
</svg>
